<svg viewBox="0 0 720 380" xmlns="http://www.w3.org/2000/svg" font-family="ui-sans-serif, system-ui, sans-serif"><defs><marker id="ag" viewBox="0 0 10 10" refX="8" refY="5" markerWidth="6" markerHeight="6" orient="auto-start-reverse"><path d="M0 0 L10 5 L0 10 z" fill="#34D399"/></marker><marker id="gg" viewBox="0 0 10 10" refX="8" refY="5" markerWidth="6" markerHeight="6" orient="auto-start-reverse"><path d="M0 0 L10 5 L0 10 z" fill="#A1A1AA"/></marker></defs><text x="14" y="26" font-size="13" font-weight="600" fill="#A1A1AA">Calibrated late fusion</text><rect x="14" y="40" width="120" height="34" rx="8" fill="#10B981" fill-opacity="0.10" stroke="#34D399" stroke-width="1.3"/><text x="74" y="61" text-anchor="middle" font-size="12" font-weight="600" fill="#34D399">Audio logits</text><rect x="14" y="262" width="120" height="34" rx="8" fill="#71717A" fill-opacity="0.10" stroke="#A1A1AA" stroke-width="1.3"/><text x="74" y="283" text-anchor="middle" font-size="12" font-weight="600" fill="#A1A1AA">Face logits</text><line x1="134" y1="57" x2="178" y2="57" stroke="#34D399" stroke-width="1.3" marker-end="url(#ag)"/><line x1="134" y1="279" x2="178" y2="279" stroke="#A1A1AA" stroke-width="1.3" marker-end="url(#gg)"/><rect x="180" y="38" width="178" height="58" rx="9" fill="#10B981" fill-opacity="0.08" stroke="#34D399" stroke-width="1.3"/><text x="269" y="58" text-anchor="middle" font-size="11" font-weight="600" fill="#34D399">divide by temperature T</text><text x="269" y="73" text-anchor="middle" font-size="9" fill="#A1A1AA">fit on validation by NLL</text><text x="269" y="86" text-anchor="middle" font-size="9" fill="#d97706">floored at 1.0: can only soften</text><rect x="180" y="260" width="178" height="58" rx="9" fill="#71717A" fill-opacity="0.07" stroke="#A1A1AA" stroke-width="1.3"/><text x="269" y="280" text-anchor="middle" font-size="11" font-weight="600" fill="#A1A1AA">divide by temperature T</text><text x="269" y="295" text-anchor="middle" font-size="9" fill="#A1A1AA">fit on validation by NLL</text><text x="269" y="308" text-anchor="middle" font-size="9" fill="#d97706">floored at 1.0: can only soften</text><text x="180" y="124" font-size="9" fill="#A1A1AA">before (overconfident wrong)</text><rect x="180" y="130" width="10" height="34" rx="2" fill="#ef4444" fill-opacity="0.85"/><rect x="194" y="150" width="10" height="14" rx="2" fill="#71717A" fill-opacity="0.6"/><rect x="208" y="156" width="10" height="8" rx="2" fill="#71717A" fill-opacity="0.6"/><rect x="222" y="158" width="10" height="6" rx="2" fill="#71717A" fill-opacity="0.6"/><path d="M242 147 L262 147" stroke="#34D399" stroke-width="1.3" marker-end="url(#ag)"/><text x="284" y="124" font-size="9" fill="#34D399">after (softened)</text><rect x="284" y="142" width="10" height="22" rx="2" fill="#34D399" fill-opacity="0.8"/><rect x="298" y="148" width="10" height="16" rx="2" fill="#71717A" fill-opacity="0.6"/><rect x="312" y="150" width="10" height="14" rx="2" fill="#71717A" fill-opacity="0.6"/><rect x="326" y="152" width="10" height="12" rx="2" fill="#71717A" fill-opacity="0.6"/><path d="M358 67 C 400 67, 400 178, 432 178" fill="none" stroke="#34D399" stroke-width="1.3" marker-end="url(#ag)"/><path d="M358 289 C 400 289, 400 200, 432 200" fill="none" stroke="#A1A1AA" stroke-width="1.3" marker-end="url(#gg)"/><rect x="434" y="160" width="150" height="56" rx="9" fill="#10B981" fill-opacity="0.08" stroke="#34D399" stroke-width="1.3"/><text x="509" y="184" text-anchor="middle" font-size="12" font-weight="600" fill="#34D399">w·audio</text><text x="509" y="200" text-anchor="middle" font-size="12" font-weight="600" fill="#A1A1AA">+ (1−w)·face</text><text x="434" y="248" font-size="9" fill="#A1A1AA">sweep w: 1.0</text><text x="576" y="248" text-anchor="end" font-size="9" fill="#A1A1AA">0.0</text><rect x="434" y="252" width="14" height="14" rx="3" fill="#34D399" fill-opacity="0.9" stroke="#34D399" stroke-width="1.3"/><rect x="452" y="252" width="14" height="14" rx="3" fill="#71717A" fill-opacity="0.18" stroke="#A1A1AA" stroke-width="1"/><rect x="470" y="252" width="14" height="14" rx="3" fill="#10B981" fill-opacity="0.30" stroke="#34D399" stroke-width="1.8"/><rect x="488" y="252" width="14" height="14" rx="3" fill="#71717A" fill-opacity="0.18" stroke="#A1A1AA" stroke-width="1"/><rect x="506" y="252" width="14" height="14" rx="3" fill="#71717A" fill-opacity="0.18" stroke="#A1A1AA" stroke-width="1"/><rect x="524" y="252" width="14" height="14" rx="3" fill="#71717A" fill-opacity="0.18" stroke="#A1A1AA" stroke-width="1"/><rect x="542" y="252" width="14" height="14" rx="3" fill="#71717A" fill-opacity="0.18" stroke="#A1A1AA" stroke-width="1"/><rect x="560" y="252" width="14" height="14" rx="3" fill="#71717A" fill-opacity="0.18" stroke="#A1A1AA" stroke-width="1"/><text x="477" y="284" text-anchor="middle" font-size="9" font-weight="600" fill="#34D399">chosen w</text><text x="434" y="304" font-size="9" fill="#A1A1AA">swept on validation actors only, per fold;</text><text x="434" y="316" font-size="9" fill="#A1A1AA">w=1 included = floor at audio</text><line x1="584" y1="188" x2="616" y2="188" stroke="#34D399" stroke-width="1.3" marker-end="url(#ag)"/><rect x="618" y="158" width="92" height="60" rx="9" fill="#10B981" fill-opacity="0.10" stroke="#34D399" stroke-width="1.3"/><text x="664" y="182" text-anchor="middle" font-size="10" font-weight="600" fill="#34D399">fused 8-class</text><text x="664" y="196" text-anchor="middle" font-size="10" font-weight="600" fill="#34D399">probabilities</text><text x="664" y="210" text-anchor="middle" font-size="10" font-weight="600" fill="#A1A1AA">→ argmax</text><g transform="translate(434,338)"><rect x="0" y="-2" width="11" height="9" rx="2.5" fill="none" stroke="#d97706" stroke-width="1.3"/><path d="M2 -2 V -5 a3.5 3.5 0 0 1 7 0 V -2" fill="none" stroke="#d97706" stroke-width="1.3"/><text x="18" y="6" font-size="9" fill="#d97706">temperatures and weight never see the test actors</text></g></svg>