<svg viewBox="0 0 720 380" xmlns="http://www.w3.org/2000/svg" font-family="ui-sans-serif, system-ui, sans-serif"><defs><marker id="ar" viewBox="0 0 10 10" refX="8" refY="5" markerWidth="6" markerHeight="6" orient="auto-start-reverse"><path d="M0 0 L10 5 L0 10 z" fill="#A1A1AA"/></marker></defs><text x="40" y="34" font-size="11" font-weight="600" fill="#A1A1AA" text-anchor="end" transform="rotate(-90 40 34)">accuracy</text><line x1="58" y1="40" x2="58" y2="280" stroke="#71717A" stroke-width="1.2"/><line x1="58" y1="280" x2="690" y2="280" stroke="#71717A" stroke-width="1.2"/><g font-size="9" fill="#71717A" text-anchor="end"><line x1="55" y1="280" x2="58" y2="280" stroke="#71717A" stroke-width="1"/><text x="50" y="283">0</text><line x1="55" y1="220" x2="58" y2="220" stroke="#71717A" stroke-width="1"/><text x="50" y="223">25</text><line x1="55" y1="160" x2="58" y2="160" stroke="#71717A" stroke-width="1"/><text x="50" y="163">50</text><line x1="55" y1="100" x2="58" y2="100" stroke="#71717A" stroke-width="1"/><text x="50" y="103">75</text><line x1="55" y1="40" x2="58" y2="40" stroke="#71717A" stroke-width="1"/><text x="50" y="43">100%</text></g><line x1="58" y1="220" x2="690" y2="220" stroke="#27272A" stroke-width="0.8" stroke-dasharray="3 4"/><line x1="58" y1="160" x2="690" y2="160" stroke="#27272A" stroke-width="0.8" stroke-dasharray="3 4"/><line x1="58" y1="100" x2="690" y2="100" stroke="#27272A" stroke-width="0.8" stroke-dasharray="3 4"/><g><rect x="100" y="66.4" width="64" height="213.6" rx="6" fill="#A1A1AA" fill-opacity="0.18" stroke="#A1A1AA" stroke-width="1.3"/><text x="132" y="60" text-anchor="middle" font-size="11" font-weight="600" fill="#A1A1AA">89%</text><rect x="100" y="196" width="64" height="84" rx="6" fill="#71717A" fill-opacity="0.16" stroke="#71717A" stroke-width="1.3"/><text x="132" y="190" text-anchor="middle" font-size="11" font-weight="600" fill="#A1A1AA">35%</text><rect x="172" y="66.4" width="36" height="129.6" rx="5" fill="#ef4444" fill-opacity="0.14" stroke="#ef4444" stroke-width="1.2" stroke-dasharray="4 3"/><line x1="172" y1="66.4" x2="208" y2="66.4" stroke="#ef4444" stroke-width="1.3"/><line x1="172" y1="196" x2="208" y2="196" stroke="#ef4444" stroke-width="1.3"/><line x1="190" y1="158" x2="190" y2="104" stroke="#ef4444" stroke-width="1.2" marker-start="url(#ar)" marker-end="url(#ar)"/><text x="132" y="299" text-anchor="middle" font-size="9" fill="#71717A">leaky split</text><text x="132" y="312" text-anchor="middle" font-size="9" fill="#71717A">new faces</text><text x="135" y="338" text-anchor="middle" font-size="11" font-weight="600" fill="#A1A1AA">ImageNet features</text><text x="135" y="352" text-anchor="middle" font-size="10" fill="#71717A">(MobileNetV2)</text></g><g><text x="350" y="78" text-anchor="middle" font-size="10" font-weight="600" fill="#ef4444">54-point drop</text><text x="350" y="92" text-anchor="middle" font-size="9" fill="#A1A1AA">= it memorized</text><text x="350" y="104" text-anchor="middle" font-size="9" fill="#A1A1AA">identities</text></g><g transform="translate(244 200)"><rect x="0" y="0" width="66" height="74" rx="8" fill="#ef4444" fill-opacity="0.06" stroke="#ef4444" stroke-width="1.2"/><path d="M33 14 C22 14 18 24 18 34 C18 47 26 56 33 56 C40 56 48 47 48 34 C48 24 44 14 33 14 Z" fill="none" stroke="#A1A1AA" stroke-width="1.3"/><circle cx="27" cy="32" r="1.6" fill="#A1A1AA"/><circle cx="39" cy="32" r="1.6" fill="#A1A1AA"/><line x1="29" y1="44" x2="37" y2="44" stroke="#A1A1AA" stroke-width="1.3"/><rect x="44" y="44" width="18" height="22" rx="3" fill="#ef4444" fill-opacity="0.12" stroke="#ef4444" stroke-width="1.2"/><circle cx="53" cy="51" r="2.4" fill="none" stroke="#ef4444" stroke-width="1.2"/><line x1="48" y1="59" x2="58" y2="59" stroke="#ef4444" stroke-width="1.2"/><line x1="48" y1="63" x2="58" y2="63" stroke="#ef4444" stroke-width="1.2"/><text x="33" y="92" text-anchor="middle" font-size="9" fill="#71717A">encodes WHO</text></g><g><rect x="448" y="62.8" width="64" height="217.2" rx="6" fill="#A1A1AA" fill-opacity="0.18" stroke="#A1A1AA" stroke-width="1.3"/><text x="480" y="56" text-anchor="middle" font-size="11" font-weight="600" fill="#A1A1AA">90%</text><rect x="448" y="140.8" width="64" height="139.2" rx="6" fill="#10B981" fill-opacity="0.18" stroke="#10B981" stroke-width="1.3"/><text x="480" y="135" text-anchor="middle" font-size="11" font-weight="600" fill="#34D399">58%</text><rect x="520" y="62.8" width="36" height="78" rx="5" fill="#d97706" fill-opacity="0.16" stroke="#d97706" stroke-width="1.2" stroke-dasharray="4 3"/><line x1="520" y1="62.8" x2="556" y2="62.8" stroke="#d97706" stroke-width="1.3"/><line x1="520" y1="140.8" x2="556" y2="140.8" stroke="#d97706" stroke-width="1.3"/><line x1="538" y1="128" x2="538" y2="76" stroke="#d97706" stroke-width="1.2" marker-start="url(#ar)" marker-end="url(#ar)"/><text x="480" y="299" text-anchor="middle" font-size="9" fill="#71717A">leaky split</text><text x="480" y="312" text-anchor="middle" font-size="9" fill="#34D399">new faces (honest)</text><text x="483" y="338" text-anchor="middle" font-size="11" font-weight="600" fill="#34D399">Expression ViT features</text></g><g><text x="640" y="92" text-anchor="middle" font-size="10" font-weight="600" fill="#d97706">32-point gap</text><text x="640" y="106" text-anchor="middle" font-size="9" fill="#A1A1AA">real expression</text><text x="640" y="118" text-anchor="middle" font-size="9" fill="#A1A1AA">transfers</text></g><g transform="translate(592 200)"><rect x="0" y="0" width="66" height="74" rx="8" fill="#10B981" fill-opacity="0.06" stroke="#10B981" stroke-width="1.2"/><path d="M33 14 C22 14 18 24 18 34 C18 47 26 56 33 56 C40 56 48 47 48 34 C48 24 44 14 33 14 Z" fill="none" stroke="#A1A1AA" stroke-width="1.3"/><circle cx="27" cy="30" r="1.6" fill="#A1A1AA"/><circle cx="39" cy="30" r="1.6" fill="#A1A1AA"/><path d="M25 41 Q33 50 41 41" fill="none" stroke="#34D399" stroke-width="1.6" stroke-linecap="round"/><text x="33" y="92" text-anchor="middle" font-size="9" fill="#71717A">encodes WHAT</text></g><line x1="358" y1="200" x2="362" y2="200" stroke="#27272A" stroke-width="0"/><line x1="357" y1="60" x2="357" y2="280" stroke="#27272A" stroke-width="0.8" stroke-dasharray="2 4"/><text x="360" y="372" text-anchor="middle" font-size="10" fill="#A1A1AA">Same test as the audio leak: the gap between leaky and unseen is the identity the features memorized.</text></svg>