<svg viewBox="0 0 720 384" xmlns="http://www.w3.org/2000/svg" font-family="ui-sans-serif, system-ui, sans-serif"><defs><marker id="leak" viewBox="0 0 10 10" refX="8" refY="5" markerWidth="7" markerHeight="7" orient="auto-start-reverse"><path d="M0 0 L10 5 L0 10 z" fill="#ef4444"/></marker></defs><g><rect x="14" y="14" width="692" height="166" rx="12" fill="#ef4444" fill-opacity="0.04" stroke="#ef4444" stroke-width="1.2" stroke-dasharray="6 4"/><text x="30" y="40" font-size="13" font-weight="600" fill="#ef4444">Random split</text><rect x="556" y="22" width="138" height="26" rx="7" fill="#ef4444" fill-opacity="0.12" stroke="#ef4444" stroke-width="1.2"/><text x="625" y="39" text-anchor="middle" font-size="11" font-weight="600" fill="#ef4444">~78% (inflated)</text><rect x="30" y="56" width="380" height="104" rx="9" fill="#71717A" fill-opacity="0.08" stroke="#71717A" stroke-width="1.2"/><text x="42" y="74" font-size="11" font-weight="600" fill="#A1A1AA">Train</text><rect x="426" y="56" width="268" height="104" rx="9" fill="#71717A" fill-opacity="0.08" stroke="#71717A" stroke-width="1.2"/><text x="438" y="74" font-size="11" font-weight="600" fill="#A1A1AA">Test</text><g font-size="9" font-weight="600" text-anchor="middle"><circle cx="58" cy="96" r="9" fill="#71717A" fill-opacity="0.85"/><text x="58" y="99" fill="#09090B">3</text><circle cx="90" cy="112" r="9" fill="#71717A" fill-opacity="0.85"/><text x="90" y="115" fill="#09090B">7</text><circle cx="124" cy="92" r="9" fill="#71717A" fill-opacity="0.85"/><text x="124" y="95" fill="#09090B">11</text><circle cx="160" cy="120" r="9" fill="#ef4444" fill-opacity="0.9"/><text x="160" y="123" fill="#09090B">14</text><circle cx="196" cy="98" r="9" fill="#71717A" fill-opacity="0.85"/><text x="196" y="101" fill="#09090B">2</text><circle cx="232" cy="116" r="9" fill="#71717A" fill-opacity="0.85"/><text x="232" y="119" fill="#09090B">19</text><circle cx="268" cy="94" r="9" fill="#71717A" fill-opacity="0.85"/><text x="268" y="97" fill="#09090B">5</text><circle cx="304" cy="118" r="9" fill="#71717A" fill-opacity="0.85"/><text x="304" y="121" fill="#09090B">22</text><circle cx="340" cy="96" r="9" fill="#71717A" fill-opacity="0.85"/><text x="340" y="99" fill="#09090B">9</text><circle cx="376" cy="114" r="9" fill="#71717A" fill-opacity="0.85"/><text x="376" y="117" fill="#09090B">17</text><circle cx="462" cy="96" r="9" fill="#71717A" fill-opacity="0.85"/><text x="462" y="99" fill="#09090B">7</text><circle cx="498" cy="118" r="9" fill="#ef4444" fill-opacity="0.9"/><text x="498" y="121" fill="#09090B">14</text><circle cx="534" cy="94" r="9" fill="#71717A" fill-opacity="0.85"/><text x="534" y="97" fill="#09090B">22</text><circle cx="570" cy="116" r="9" fill="#71717A" fill-opacity="0.85"/><text x="570" y="119" fill="#09090B">3</text><circle cx="606" cy="96" r="9" fill="#71717A" fill-opacity="0.85"/><text x="606" y="99" fill="#09090B">19</text><circle cx="642" cy="114" r="9" fill="#71717A" fill-opacity="0.85"/><text x="642" y="117" fill="#09090B">9</text></g><path d="M168 124 C 300 168, 380 168, 490 122" fill="none" stroke="#ef4444" stroke-width="1.4" stroke-dasharray="5 4" marker-end="url(#leak)"/><text x="330" y="172" text-anchor="middle" font-size="10" font-weight="600" fill="#ef4444">same voice, both sides</text></g><g><rect x="14" y="196" width="692" height="166" rx="12" fill="#10B981" fill-opacity="0.05" stroke="#10B981" stroke-width="1.2"/><text x="30" y="222" font-size="13" font-weight="600" fill="#10B981">Actor-disjoint split</text><rect x="556" y="204" width="138" height="26" rx="7" fill="#10B981" fill-opacity="0.12" stroke="#10B981" stroke-width="1.2"/><text x="625" y="221" text-anchor="middle" font-size="11" font-weight="600" fill="#34D399">64.9% (honest)</text><rect x="30" y="240" width="448" height="104" rx="9" fill="#10B981" fill-opacity="0.06" stroke="#10B981" stroke-width="1.2"/><text x="42" y="258" font-size="11" font-weight="600" fill="#34D399">Train (actors 1-20)</text><rect x="510" y="240" width="184" height="104" rx="9" fill="#10B981" fill-opacity="0.06" stroke="#10B981" stroke-width="1.2"/><text x="522" y="258" font-size="11" font-weight="600" fill="#34D399">Test (21-24)</text><line x1="494" y1="246" x2="494" y2="338" stroke="#34D399" stroke-width="1.3" stroke-dasharray="5 4"/><text x="494" y="356" text-anchor="middle" font-size="10" font-weight="600" fill="#34D399">no actor crosses</text><g font-size="9" font-weight="600" text-anchor="middle"><circle cx="58" cy="280" r="9" fill="#10B981" fill-opacity="0.85"/><text x="58" y="283" fill="#09090B">1</text><circle cx="92" cy="280" r="9" fill="#10B981" fill-opacity="0.85"/><text x="92" y="283" fill="#09090B">2</text><circle cx="126" cy="280" r="9" fill="#10B981" fill-opacity="0.85"/><text x="126" y="283" fill="#09090B">3</text><circle cx="160" cy="280" r="9" fill="#10B981" fill-opacity="0.85"/><text x="160" y="283" fill="#09090B">4</text><circle cx="194" cy="280" r="9" fill="#10B981" fill-opacity="0.85"/><text x="194" y="283" fill="#09090B">5</text><circle cx="228" cy="280" r="9" fill="#10B981" fill-opacity="0.85"/><text x="228" y="283" fill="#09090B">6</text><circle cx="262" cy="280" r="9" fill="#10B981" fill-opacity="0.85"/><text x="262" y="283" fill="#09090B">7</text><circle cx="296" cy="280" r="9" fill="#10B981" fill-opacity="0.85"/><text x="296" y="283" fill="#09090B">8</text><circle cx="330" cy="280" r="9" fill="#10B981" fill-opacity="0.85"/><text x="330" y="283" fill="#09090B">9</text><circle cx="364" cy="280" r="9" fill="#10B981" fill-opacity="0.85"/><text x="364" y="283" fill="#09090B">10</text><circle cx="398" cy="280" r="9" fill="#10B981" fill-opacity="0.85"/><text x="398" y="283" fill="#09090B">11</text><circle cx="432" cy="280" r="9" fill="#10B981" fill-opacity="0.85"/><text x="432" y="283" fill="#09090B">12</text><circle cx="58" cy="316" r="9" fill="#10B981" fill-opacity="0.85"/><text x="58" y="319" fill="#09090B">13</text><circle cx="92" cy="316" r="9" fill="#10B981" fill-opacity="0.85"/><text x="92" y="319" fill="#09090B">14</text><circle cx="126" cy="316" r="9" fill="#10B981" fill-opacity="0.85"/><text x="126" y="319" fill="#09090B">15</text><circle cx="160" cy="316" r="9" fill="#10B981" fill-opacity="0.85"/><text x="160" y="319" fill="#09090B">16</text><circle cx="194" cy="316" r="9" fill="#10B981" fill-opacity="0.85"/><text x="194" y="319" fill="#09090B">17</text><circle cx="228" cy="316" r="9" fill="#10B981" fill-opacity="0.85"/><text x="228" y="319" fill="#09090B">18</text><circle cx="262" cy="316" r="9" fill="#10B981" fill-opacity="0.85"/><text x="262" y="319" fill="#09090B">19</text><circle cx="296" cy="316" r="9" fill="#10B981" fill-opacity="0.85"/><text x="296" y="319" fill="#09090B">20</text><circle cx="552" cy="298" r="9" fill="#34D399" fill-opacity="0.95"/><text x="552" y="301" fill="#09090B">21</text><circle cx="592" cy="298" r="9" fill="#34D399" fill-opacity="0.95"/><text x="592" y="301" fill="#09090B">22</text><circle cx="632" cy="298" r="9" fill="#34D399" fill-opacity="0.95"/><text x="632" y="301" fill="#09090B">23</text><circle cx="672" cy="298" r="9" fill="#34D399" fill-opacity="0.95"/><text x="672" y="301" fill="#09090B">24</text></g></g></svg>