<svg viewBox="0 0 720 360" xmlns="http://www.w3.org/2000/svg" font-family="ui-sans-serif, system-ui, sans-serif"><defs><marker id="ag" viewBox="0 0 10 10" refX="8" refY="5" markerWidth="6" markerHeight="6" orient="auto-start-reverse"><path d="M0 0 L10 5 L0 10 z" fill="#34D399"/></marker><marker id="as" viewBox="0 0 10 10" refX="8" refY="5" markerWidth="6" markerHeight="6" orient="auto-start-reverse"><path d="M0 0 L10 5 L0 10 z" fill="#71717A"/></marker><marker id="am" viewBox="0 0 10 10" refX="8" refY="5" markerWidth="6" markerHeight="6" orient="auto-start-reverse"><path d="M0 0 L10 5 L0 10 z" fill="#10B981"/></marker></defs><text x="30" y="28" font-size="12" font-weight="600" fill="#34D399">Audio path (trusted)</text><g><rect x="30" y="42" width="78" height="34" rx="7" fill="#10B981" fill-opacity="0.1" stroke="#34D399" stroke-width="1.3"/><text x="69" y="63" text-anchor="middle" font-size="10" font-weight="600" fill="#34D399">Waveform</text><rect x="130" y="38" width="96" height="42" rx="7" fill="#10B981" fill-opacity="0.1" stroke="#34D399" stroke-width="1.3"/><text x="178" y="55" text-anchor="middle" font-size="9" font-weight="600" fill="#34D399">Frozen WavLM-large</text><text x="178" y="68" text-anchor="middle" font-size="9" fill="#A1A1AA">encoder (25 layers)</text><rect x="248" y="38" width="96" height="42" rx="7" fill="#10B981" fill-opacity="0.1" stroke="#34D399" stroke-width="1.3"/><text x="296" y="55" text-anchor="middle" font-size="9" font-weight="600" fill="#34D399">Learnable layer</text><text x="296" y="68" text-anchor="middle" font-size="9" fill="#A1A1AA">weighting (softmax)</text><rect x="366" y="38" width="96" height="42" rx="7" fill="#10B981" fill-opacity="0.1" stroke="#34D399" stroke-width="1.3"/><text x="414" y="55" text-anchor="middle" font-size="9" font-weight="600" fill="#34D399">Attentive stats</text><text x="414" y="68" text-anchor="middle" font-size="9" fill="#A1A1AA">pooling</text><rect x="484" y="42" width="62" height="34" rx="7" fill="#10B981" fill-opacity="0.1" stroke="#34D399" stroke-width="1.3"/><text x="515" y="63" text-anchor="middle" font-size="10" font-weight="600" fill="#34D399">MLP head</text></g><line x1="108" y1="59" x2="126" y2="59" stroke="#34D399" stroke-width="1.3" marker-end="url(#ag)"/><line x1="226" y1="59" x2="244" y2="59" stroke="#34D399" stroke-width="1.3" marker-end="url(#ag)"/><line x1="344" y1="59" x2="362" y2="59" stroke="#34D399" stroke-width="1.3" marker-end="url(#ag)"/><line x1="462" y1="59" x2="480" y2="59" stroke="#34D399" stroke-width="1.3" marker-end="url(#ag)"/><rect x="554" y="40" width="92" height="38" rx="7" fill="#10B981" fill-opacity="0.16" stroke="#34D399" stroke-width="1.3"/><text x="600" y="55" text-anchor="middle" font-size="9" font-weight="600" fill="#34D399">Audio class</text><text x="600" y="68" text-anchor="middle" font-size="9" fill="#A1A1AA">probabilities</text><line x1="546" y1="59" x2="552" y2="59" stroke="#34D399" stroke-width="1.3" marker-end="url(#ag)"/><text x="30" y="148" font-size="12" font-weight="600" fill="#A1A1AA">Face path (weaker)</text><g><rect x="30" y="162" width="78" height="40" rx="7" fill="#71717A" fill-opacity="0.1" stroke="#71717A" stroke-width="1.3"/><text x="69" y="180" text-anchor="middle" font-size="9" font-weight="600" fill="#A1A1AA">16 face</text><text x="69" y="193" text-anchor="middle" font-size="9" fill="#A1A1AA">frames</text><rect x="130" y="162" width="96" height="40" rx="7" fill="#71717A" fill-opacity="0.1" stroke="#71717A" stroke-width="1.3"/><text x="178" y="180" text-anchor="middle" font-size="9" font-weight="600" fill="#A1A1AA">Expression ViT</text><text x="178" y="193" text-anchor="middle" font-size="9" fill="#A1A1AA">features</text><rect x="248" y="162" width="96" height="40" rx="7" fill="#71717A" fill-opacity="0.1" stroke="#71717A" stroke-width="1.3"/><text x="296" y="180" text-anchor="middle" font-size="9" font-weight="600" fill="#A1A1AA">Logistic-regression</text><text x="296" y="193" text-anchor="middle" font-size="9" fill="#A1A1AA">classifier</text><rect x="366" y="162" width="96" height="40" rx="7" fill="#71717A" fill-opacity="0.12" stroke="#A1A1AA" stroke-width="1.3"/><text x="414" y="180" text-anchor="middle" font-size="9" font-weight="600" fill="#A1A1AA">Face class</text><text x="414" y="193" text-anchor="middle" font-size="9" fill="#A1A1AA">probabilities</text></g><line x1="108" y1="182" x2="126" y2="182" stroke="#71717A" stroke-width="1.3" marker-end="url(#as)"/><line x1="226" y1="182" x2="244" y2="182" stroke="#71717A" stroke-width="1.3" marker-end="url(#as)"/><line x1="344" y1="182" x2="362" y2="182" stroke="#71717A" stroke-width="1.3" marker-end="url(#as)"/><rect x="494" y="232" width="152" height="56" rx="10" fill="#10B981" fill-opacity="0.08" stroke="#34D399" stroke-width="1.4"/><text x="570" y="255" text-anchor="middle" font-size="10" font-weight="600" fill="#34D399">Temperature-scale each</text><text x="570" y="270" text-anchor="middle" font-size="10" font-weight="600" fill="#34D399">+ weighted average</text><text x="570" y="283" text-anchor="middle" font-size="8" fill="#A1A1AA">calibrated fusion</text><path d="M600 78 L600 110 Q600 118 592 118 L578 118 Q570 118 570 126 L570 230" fill="none" stroke="#34D399" stroke-width="1.3" marker-end="url(#am)"/><path d="M462 182 L488 182 Q500 182 500 194 L500 230" fill="none" stroke="#71717A" stroke-width="1.3" marker-end="url(#as)"/><rect x="494" y="312" width="152" height="36" rx="9" fill="#10B981" fill-opacity="0.16" stroke="#34D399" stroke-width="1.4"/><text x="570" y="334" text-anchor="middle" font-size="11" font-weight="600" fill="#34D399">8 emotion probabilities</text><line x1="570" y1="288" x2="570" y2="310" stroke="#34D399" stroke-width="1.3" marker-end="url(#am)"/><text x="30" y="334" font-size="10" fill="#A1A1AA">Two models trained separately,</text><text x="30" y="348" font-size="10" fill="#A1A1AA">combined only at the probabilities.</text></svg>