<svg viewBox="0 0 780 312" xmlns="http://www.w3.org/2000/svg" font-family="ui-sans-serif, system-ui, sans-serif">
  <!-- column headers -->
  <g font-size="11" font-family="ui-monospace, monospace" fill="#A1A1AA">
    <text x="24" y="34">Arm</text>
    <text x="372" y="34" text-anchor="middle">hit@3</text>
    <text x="464" y="34" text-anchor="middle">hit@5</text>
    <text x="556" y="34" text-anchor="middle">recall@5</text>
    <text x="648" y="34" text-anchor="middle">MRR</text>
    <text x="740" y="34" text-anchor="middle">nDCG@5</text>
  </g>
  <line x1="20" y1="46" x2="760" y2="46" stroke="#27272A" stroke-width="1" />

  <!-- Row A: TF-IDF baseline -->
  <g>
    <text x="24" y="78" font-size="13" font-weight="600" fill="#A1A1AA">A  TF-IDF baseline</text>
    <text x="372" y="78" text-anchor="middle" font-size="13" fill="#A1A1AA">0.78</text>
    <text x="464" y="78" text-anchor="middle" font-size="13" fill="#A1A1AA">0.89</text>
    <text x="556" y="78" text-anchor="middle" font-size="13" fill="#A1A1AA">0.89</text>
    <rect x="620" y="60" width="56" height="26" rx="5" fill="#10B981" fill-opacity="0.12" stroke="#10B981" stroke-width="1" />
    <text x="648" y="78" text-anchor="middle" font-size="13" font-weight="700" fill="#10B981">0.81</text>
    <rect x="712" y="60" width="56" height="26" rx="5" fill="#10B981" fill-opacity="0.12" stroke="#10B981" stroke-width="1" />
    <text x="740" y="78" text-anchor="middle" font-size="13" font-weight="700" fill="#10B981">0.82</text>
  </g>
  <line x1="20" y1="98" x2="760" y2="98" stroke="#27272A" stroke-width="0.6" />

  <!-- Row B: Dense only (weakest) -->
  <g>
    <rect x="14" y="110" width="752" height="40" rx="6" fill="#ef4444" fill-opacity="0.05" />
    <text x="24" y="135" font-size="13" font-weight="600" fill="#A1A1AA">B  Dense only<tspan fill="#ef4444" font-size="10" font-weight="600">   weakest</tspan></text>
    <text x="372" y="135" text-anchor="middle" font-size="13" fill="#71717A">0.67</text>
    <text x="464" y="135" text-anchor="middle" font-size="13" fill="#71717A">0.72</text>
    <text x="556" y="135" text-anchor="middle" font-size="13" fill="#71717A">0.72</text>
    <text x="648" y="135" text-anchor="middle" font-size="13" fill="#71717A">0.57</text>
    <text x="740" y="135" text-anchor="middle" font-size="13" fill="#71717A">0.58</text>
  </g>
  <line x1="20" y1="162" x2="760" y2="162" stroke="#27272A" stroke-width="0.6" />

  <!-- Row C: Hybrid -->
  <g>
    <text x="24" y="194" font-size="13" font-weight="600" fill="#A1A1AA">C  Hybrid (dense + BM25, RRF)</text>
    <text x="372" y="194" text-anchor="middle" font-size="13" fill="#A1A1AA">0.78</text>
    <rect x="436" y="176" width="56" height="26" rx="5" fill="#10B981" fill-opacity="0.12" stroke="#10B981" stroke-width="1" />
    <text x="464" y="194" text-anchor="middle" font-size="13" font-weight="700" fill="#10B981">0.94</text>
    <rect x="528" y="176" width="56" height="26" rx="5" fill="#10B981" fill-opacity="0.12" stroke="#10B981" stroke-width="1" />
    <text x="556" y="194" text-anchor="middle" font-size="13" font-weight="700" fill="#10B981">0.94</text>
    <text x="648" y="194" text-anchor="middle" font-size="13" fill="#A1A1AA">0.60</text>
    <text x="740" y="194" text-anchor="middle" font-size="13" fill="#A1A1AA">0.68</text>
  </g>
  <line x1="20" y1="214" x2="760" y2="214" stroke="#27272A" stroke-width="0.6" />

  <!-- Row D: Hybrid + rerank -->
  <g>
    <text x="24" y="246" font-size="13" font-weight="600" fill="#10B981">D  Hybrid + rerank</text>
    <rect x="344" y="228" width="56" height="26" rx="5" fill="#10B981" fill-opacity="0.12" stroke="#10B981" stroke-width="1" />
    <text x="372" y="246" text-anchor="middle" font-size="13" font-weight="700" fill="#10B981">0.83</text>
    <text x="464" y="246" text-anchor="middle" font-size="13" fill="#A1A1AA">0.89</text>
    <text x="556" y="246" text-anchor="middle" font-size="13" fill="#A1A1AA">0.89</text>
    <text x="648" y="246" text-anchor="middle" font-size="13" fill="#A1A1AA">0.78</text>
    <text x="740" y="246" text-anchor="middle" font-size="13" fill="#A1A1AA">0.80</text>
  </g>
  <line x1="20" y1="266" x2="760" y2="266" stroke="#27272A" stroke-width="1" />

  <text x="24" y="294" font-size="11" fill="#71717A">Best in each column is boxed. 18 answerable questions over 99 chunks. Direction, not a benchmark.</text>
</svg>
