<svg viewBox="0 0 720 360" xmlns="http://www.w3.org/2000/svg" font-family="ui-sans-serif, system-ui, sans-serif"><rect x="20" y="20" width="480" height="300" rx="12" fill="#10B981" fill-opacity="0.03" stroke="#27272A" stroke-width="1"/><circle cx="190" cy="150" r="70" fill="#10B981" fill-opacity="0.06" stroke="#10B981" stroke-width="1" stroke-dasharray="4 4"/><g fill="#10B981"><circle cx="160" cy="120" r="5"/><circle cx="215" cy="130" r="5"/><circle cx="155" cy="175" r="5"/><circle cx="210" cy="180" r="5"/><circle cx="185" cy="155" r="5"/></g><text x="190" y="240" text-anchor="middle" font-size="10" fill="#10B981">your samples</text><path d="M188 150 l9 -3 l-3 9 l-3 -3 z M188 150 l-9 3 l3 -9 l3 3 z M188 150 l3 9 l-9 -3 l3 -3 z M188 150 l-3 -9 l9 3 l-3 3 z" fill="#10B981"/><polygon points="188,138 191,148 201,150 191,152 188,162 185,152 175,150 185,148" fill="#10B981"/><text x="190" y="112" text-anchor="middle" font-size="10" font-weight="600" fill="#10B981">your centroid = your voice</text><line x1="188" y1="150" x2="395" y2="95" stroke="#71717A" stroke-width="1.4" stroke-dasharray="4 3"/><circle cx="400" cy="90" r="6" fill="#71717A"/><text x="410" y="82" font-size="10" fill="#A1A1AA">draft (before)</text><text x="300" y="110" font-size="10" font-weight="600" fill="#71717A">voice match 0.62</text><line x1="188" y1="150" x2="282" y2="205" stroke="#34D399" stroke-width="1.4" stroke-dasharray="4 3"/><circle cx="288" cy="208" r="6" fill="#34D399" fill-opacity="0.85"/><text x="298" y="222" font-size="10" fill="#34D399">draft (after rewrite)</text><text x="230" y="195" font-size="10" font-weight="600" fill="#34D399">0.74</text><rect x="518" y="110" width="182" height="140" rx="10" fill="#10B981" fill-opacity="0.04" stroke="#27272A" stroke-width="1"/><text x="534" y="138" font-size="10" fill="#A1A1AA">StyleDistance is trained</text><text x="534" y="154" font-size="10" fill="#A1A1AA">so same-voice /</text><text x="534" y="170" font-size="10" fill="#A1A1AA">different-topic texts</text><text x="534" y="186" font-size="10" fill="#10B981">land close,</text><text x="534" y="206" font-size="10" fill="#A1A1AA">same-topic /</text><text x="534" y="222" font-size="10" fill="#A1A1AA">different-voice texts</text><text x="534" y="238" font-size="10" fill="#71717A">land far apart.</text></svg>