<svg viewBox="0 0 720 400" xmlns="http://www.w3.org/2000/svg" font-family="ui-sans-serif, system-ui, sans-serif"><text x="360" y="24" text-anchor="middle" font-size="11" fill="#A1A1AA">Predicted author</text><text x="32" y="180" font-size="11" fill="#A1A1AA" transform="rotate(-90 32 180)" text-anchor="middle">True author</text><g font-size="9.5" fill="#A1A1AA"><text x="185" y="52" text-anchor="middle">Austen</text><text x="265" y="52" text-anchor="middle">Carroll</text><text x="345" y="52" text-anchor="middle">Chest.</text><text x="425" y="52" text-anchor="middle">Melville</text><text x="505" y="52" text-anchor="middle">Shakes.</text></g><g font-size="9.5" fill="#A1A1AA" text-anchor="end"><text x="138" y="84">Austen</text><text x="138" y="124">Carroll</text><text x="138" y="164">Chesterton</text><text x="138" y="204">Melville</text><text x="138" y="244">Shakespeare</text></g><g><rect x="145" y="60" width="80" height="40" fill="#10B981" fill-opacity="0.85"/><text x="185" y="85" text-anchor="middle" font-size="12" font-weight="700" fill="#052e21">348</text><rect x="225" y="60" width="80" height="40" fill="#10B981" fill-opacity="0.04"/><text x="265" y="85" text-anchor="middle" font-size="11" fill="#52525B">0</text><rect x="305" y="60" width="80" height="40" fill="#10B981" fill-opacity="0.05"/><text x="345" y="85" text-anchor="middle" font-size="11" fill="#A1A1AA">1</text><rect x="385" y="60" width="80" height="40" fill="#10B981" fill-opacity="0.1"/><text x="425" y="85" text-anchor="middle" font-size="11" fill="#A1A1AA">4</text><rect x="465" y="60" width="80" height="40" fill="#10B981" fill-opacity="0.04"/><text x="505" y="85" text-anchor="middle" font-size="11" fill="#52525B">0</text></g><g><rect x="145" y="100" width="80" height="40" fill="#10B981" fill-opacity="0.16"/><text x="185" y="125" text-anchor="middle" font-size="11" fill="#A1A1AA">7</text><rect x="225" y="100" width="80" height="40" fill="#10B981" fill-opacity="0.04"/><text x="265" y="125" text-anchor="middle" font-size="11" fill="#52525B">0</text><rect x="305" y="100" width="80" height="40" fill="#10B981" fill-opacity="0.32"/><text x="345" y="125" text-anchor="middle" font-size="12" font-weight="700" fill="#FAFAFA">16</text><rect x="305" y="100" width="80" height="40" fill="none" stroke="#ef4444" stroke-width="2.2"/><rect x="385" y="100" width="80" height="40" fill="#10B981" fill-opacity="0.08"/><text x="425" y="125" text-anchor="middle" font-size="11" fill="#A1A1AA">3</text><rect x="465" y="100" width="80" height="40" fill="#10B981" fill-opacity="0.04"/><text x="505" y="125" text-anchor="middle" font-size="11" fill="#52525B">0</text></g><g><rect x="145" y="140" width="80" height="40" fill="#10B981" fill-opacity="0.06"/><text x="185" y="165" text-anchor="middle" font-size="11" fill="#A1A1AA">2</text><rect x="225" y="140" width="80" height="40" fill="#10B981" fill-opacity="0.04"/><text x="265" y="165" text-anchor="middle" font-size="11" fill="#52525B">0</text><rect x="305" y="140" width="80" height="40" fill="#10B981" fill-opacity="0.7"/><text x="345" y="165" text-anchor="middle" font-size="12" font-weight="700" fill="#052e21">159</text><rect x="385" y="140" width="80" height="40" fill="#10B981" fill-opacity="0.26"/><text x="425" y="165" text-anchor="middle" font-size="11" fill="#FAFAFA">12</text><rect x="465" y="140" width="80" height="40" fill="#10B981" fill-opacity="0.04"/><text x="505" y="165" text-anchor="middle" font-size="11" fill="#52525B">0</text></g><g><rect x="145" y="180" width="80" height="40" fill="#10B981" fill-opacity="0.12"/><text x="185" y="205" text-anchor="middle" font-size="11" fill="#A1A1AA">5</text><rect x="225" y="180" width="80" height="40" fill="#10B981" fill-opacity="0.04"/><text x="265" y="205" text-anchor="middle" font-size="11" fill="#52525B">0</text><rect x="305" y="180" width="80" height="40" fill="#10B981" fill-opacity="0.28"/><text x="345" y="205" text-anchor="middle" font-size="11" fill="#FAFAFA">13</text><rect x="385" y="180" width="80" height="40" fill="#10B981" fill-opacity="0.75"/><text x="425" y="205" text-anchor="middle" font-size="12" font-weight="700" fill="#052e21">176</text><rect x="465" y="180" width="80" height="40" fill="#10B981" fill-opacity="0.06"/><text x="505" y="205" text-anchor="middle" font-size="11" fill="#A1A1AA">2</text></g><g><rect x="145" y="220" width="80" height="40" fill="#10B981" fill-opacity="0.14"/><text x="185" y="245" text-anchor="middle" font-size="11" fill="#A1A1AA">6</text><rect x="225" y="220" width="80" height="40" fill="#10B981" fill-opacity="0.04"/><text x="265" y="245" text-anchor="middle" font-size="11" fill="#52525B">0</text><rect x="305" y="220" width="80" height="40" fill="#10B981" fill-opacity="0.14"/><text x="345" y="245" text-anchor="middle" font-size="11" fill="#A1A1AA">6</text><rect x="385" y="220" width="80" height="40" fill="#10B981" fill-opacity="0.26"/><text x="425" y="245" text-anchor="middle" font-size="11" fill="#FAFAFA">12</text><rect x="465" y="220" width="80" height="40" fill="#10B981" fill-opacity="0.4"/><text x="505" y="245" text-anchor="middle" font-size="12" font-weight="700" fill="#052e21">33</text></g><rect x="225" y="60" width="80" height="200" fill="none" stroke="#71717A" stroke-width="1.5" stroke-dasharray="5 4"/><line x1="345" y1="100" x2="560" y2="108" stroke="#ef4444" stroke-width="1.2"/><text x="565" y="104" font-size="9.5" fill="#ef4444">Carroll's 16 docs</text><text x="565" y="117" font-size="9.5" fill="#ef4444">predicted as Chesterton</text><text x="265" y="294" text-anchor="middle" font-size="9" fill="#71717A">Carroll never predicted:</text><text x="265" y="307" text-anchor="middle" font-size="9" fill="#71717A">only 59 training docs</text><text x="40" y="352" font-size="12" fill="#A1A1AA">A strong signal, not a complete one, which is why we also use a neural embedding.</text></svg>