<svg viewBox="0 0 720 380" xmlns="http://www.w3.org/2000/svg" font-family="ui-sans-serif, system-ui, sans-serif"><g transform="translate(200,180)"><g stroke="#27272A" stroke-width="1" fill="none"><polygon points="0,-120 103.9,-60 103.9,60 0,120 -103.9,60 -103.9,-60"/><polygon points="0,-80 69.3,-40 69.3,40 0,80 -69.3,40 -69.3,-40"/><polygon points="0,-40 34.6,-20 34.6,20 0,40 -34.6,20 -34.6,-20"/></g><g stroke="#3F3F46" stroke-width="0.8"><line x1="0" y1="0" x2="0" y2="-120"/><line x1="0" y1="0" x2="103.9" y2="-60"/><line x1="0" y1="0" x2="103.9" y2="60"/><line x1="0" y1="0" x2="0" y2="120"/><line x1="0" y1="0" x2="-103.9" y2="60"/><line x1="0" y1="0" x2="-103.9" y2="-60"/></g><polygon points="0,-96 78,-45 52,30 0,76 -62,36 -35,-20" fill="#10B981" fill-opacity="0.18" stroke="#10B981" stroke-width="1.8"/><polygon points="0,-52 52,-30 87,50 0,52 -87,50 -69,-40" fill="none" stroke="#34D399" stroke-width="1.6" stroke-dasharray="5 4"/><g font-size="10" fill="#A1A1AA"><text x="0" y="-130" text-anchor="middle">'the' rate</text><text x="114" y="-62" text-anchor="start">'of' rate</text><text x="114" y="70" text-anchor="start">'but' rate</text><text x="0" y="140" text-anchor="middle">sentence length</text><text x="-114" y="70" text-anchor="end">comma rate</text><text x="-114" y="-62" text-anchor="end">vocab range</text></g></g><g transform="translate(430,80)"><rect x="0" y="0" width="16" height="3" fill="#10B981"/><text x="24" y="4" font-size="11" font-weight="600" fill="#10B981">Author A</text><line x1="0" y1="22" x2="16" y2="22" stroke="#34D399" stroke-width="2" stroke-dasharray="4 3"/><text x="24" y="26" font-size="11" font-weight="600" fill="#34D399">Author B</text></g><g transform="translate(430,130)"><rect x="0" y="0" width="262" height="96" rx="10" fill="#10B981" fill-opacity="0.05" stroke="#27272A" stroke-width="1"/><text x="14" y="22" font-size="10" fill="#A1A1AA">Author A vector</text><g font-size="11" font-family="ui-monospace, monospace" fill="#10B981"><text x="14" y="44">the 0.061   of 0.038   but 0.011</text><text x="14" y="66">len 18w   comma 4.2/100w</text><text x="14" y="86">ttr 0.46</text></g></g><text x="40" y="344" font-size="12" fill="#A1A1AA">None of these are conscious choices, which is exactly why they identify you.</text></svg>