<svg viewBox="0 0 720 340" xmlns="http://www.w3.org/2000/svg" font-family="ui-sans-serif, system-ui, sans-serif"><defs><pattern id="stripe" width="7" height="7" patternTransform="rotate(45)" patternUnits="userSpaceOnUse"><rect width="7" height="7" fill="#71717A" fill-opacity="0.12"/><line x1="0" y1="0" x2="0" y2="7" stroke="#71717A" stroke-width="2.5"/></pattern></defs><line x1="150" y1="40" x2="150" y2="250" stroke="#27272A" stroke-width="1"/><line x1="150" y1="250" x2="690" y2="250" stroke="#27272A" stroke-width="1"/><g font-size="9" fill="#71717A"><text x="150" y="266" text-anchor="middle">0</text><text x="285" y="266" text-anchor="middle">0.25</text><text x="420" y="266" text-anchor="middle">0.5</text><text x="555" y="266" text-anchor="middle">0.75</text><text x="690" y="266" text-anchor="middle">1.0</text></g><line x1="258" y1="40" x2="258" y2="250" stroke="#71717A" stroke-width="1.2" stroke-dasharray="4 4"/><text x="258" y="34" text-anchor="middle" font-size="10" fill="#71717A">chance (5 classes) 0.20</text><g><text x="142" y="75" text-anchor="end" font-size="11" font-weight="600" fill="#10B981">Function words</text><rect x="150" y="60" width="480" height="26" rx="5" fill="#10B981" fill-opacity="0.85"/><text x="640" y="78" font-size="11" font-weight="700" fill="#10B981">0.889</text><text x="640" y="92" font-size="8.5" fill="#A1A1AA">F1 0.684</text></g><g transform="translate(258,108)"><rect x="0" y="0" width="232" height="18" rx="9" fill="#10B981" fill-opacity="0.12" stroke="#10B981" stroke-width="1"/><text x="10" y="13" font-size="9.5" font-weight="600" fill="#10B981">TRUST: topic-independent, zero content words</text></g><g><text x="142" y="160" text-anchor="end" font-size="11" font-weight="600" fill="#A1A1AA">Char n-grams</text><rect x="150" y="145" width="539" height="26" rx="5" fill="url(#stripe)" stroke="#71717A" stroke-width="1.2"/><text x="658" y="163" text-anchor="end" font-size="11" font-weight="700" fill="#71717A">0.999</text><text x="658" y="177" text-anchor="end" font-size="8.5" fill="#A1A1AA">F1 0.996</text></g><g transform="translate(390,193)"><rect x="0" y="0" width="300" height="18" rx="9" fill="#d97706" fill-opacity="0.12" stroke="#d97706" stroke-width="1"/><text x="10" y="13" font-size="9.5" font-weight="600" fill="#d97706">INFLATED: far-apart authors + 2 leaky single-book authors</text></g><g><text x="142" y="245" text-anchor="end" font-size="11" font-weight="600" fill="#A1A1AA">Combined</text><rect x="150" y="230" width="539" height="24" rx="5" fill="url(#stripe)" stroke="#71717A" stroke-width="1.2"/><text x="658" y="247" text-anchor="end" font-size="11" font-weight="700" fill="#71717A">0.999</text></g><g><path d="M258 296 L258 304 L630 304 L630 296" fill="none" stroke="#10B981" stroke-width="1.3"/><line x1="444" y1="304" x2="444" y2="312" stroke="#10B981" stroke-width="1.3"/><text x="444" y="328" text-anchor="middle" font-size="11" fill="#10B981">the real signal: identity in the words you do not think about</text></g></svg>